<svg width="24" height="24" viewBox="0 0 24 24" fill="none" xmlns="http://www.w3.org/2000/svg">
<g id="icon">
<path id="Vector" d="M11.7195 1C5.24784 1 0 6.24692 0 12.7195C0 17.8976 3.35799 22.2905 8.01455 23.8402C8.60023 23.9487 8.81531 23.586 8.81531 23.2764C8.81531 22.997 8.80437 22.0737 8.79941 21.0945C5.53893 21.8034 4.85096 19.7117 4.85096 19.7117C4.31785 18.3571 3.54973 17.997 3.54973 17.997C2.48646 17.2696 3.62988 17.2844 3.62988 17.2844C4.80675 17.3672 5.42643 18.4922 5.42643 18.4922C6.47168 20.2839 8.16805 19.7659 8.83682 19.4665C8.94197 18.7089 9.24574 18.192 9.58086 17.8993C6.97785 17.6029 4.24138 16.598 4.24138 12.1075C4.24138 10.828 4.69921 9.7825 5.44895 8.96179C5.32726 8.66656 4.92614 7.47462 5.56246 5.86033C5.56246 5.86033 6.54659 5.54534 8.78617 7.06165C9.72094 6.8019 10.7235 6.67175 11.7195 6.66734C12.7155 6.67175 13.7188 6.8019 14.6554 7.06165C16.8924 5.54534 17.8751 5.86033 17.8751 5.86033C18.513 7.47462 18.1117 8.66656 17.99 8.96179C18.7414 9.7825 19.1961 10.8279 19.1961 12.1075C19.1961 16.6087 16.4545 17.5999 13.8449 17.89C14.2652 18.2537 14.6397 18.9669 14.6397 20.0602C14.6397 21.6283 14.6261 22.8904 14.6261 23.2764C14.6261 23.5883 14.8371 23.9537 15.4312 23.8387C20.0852 22.2872 23.439 17.8959 23.439 12.7195C23.439 6.24692 18.1918 1 11.7195 1Z" fill="#49454F"/>
</g>
</svg>
