<svg width="24" height="23" viewBox="0 0 24 23" fill="none" xmlns="http://www.w3.org/2000/svg">
<g id="Logo">
<path id="Vector" d="M12.2195 0C5.74784 0 0.5 5.24692 0.5 11.7195C0.5 16.8976 3.85799 21.2905 8.51455 22.8402C9.10023 22.9487 9.31531 22.586 9.31531 22.2764C9.31531 21.997 9.30437 21.0737 9.29941 20.0945C6.03893 20.8034 5.35096 18.7117 5.35096 18.7117C4.81785 17.3571 4.04973 16.997 4.04973 16.997C2.98646 16.2696 4.12988 16.2844 4.12988 16.2844C5.30675 16.3672 5.92643 17.4922 5.92643 17.4922C6.97168 19.2839 8.66805 18.7659 9.33682 18.4665C9.44197 17.7089 9.74574 17.192 10.0809 16.8993C7.47785 16.6029 4.74138 15.598 4.74138 11.1075C4.74138 9.82802 5.19921 8.7825 5.94895 7.96179C5.82726 7.66656 5.42614 6.47462 6.06246 4.86033C6.06246 4.86033 7.04659 4.54534 9.28617 6.06165C10.2209 5.8019 11.2235 5.67175 12.2195 5.66734C13.2155 5.67175 14.2188 5.8019 15.1554 6.06165C17.3924 4.54534 18.3751 4.86033 18.3751 4.86033C19.013 6.47462 18.6117 7.66656 18.49 7.96179C19.2414 8.7825 19.6961 9.82793 19.6961 11.1075C19.6961 15.6087 16.9545 16.5999 14.3449 16.89C14.7652 17.2537 15.1397 17.9669 15.1397 19.0602C15.1397 20.6283 15.1261 21.8904 15.1261 22.2764C15.1261 22.5883 15.3371 22.9537 15.9312 22.8387C20.5852 21.2872 23.939 16.8959 23.939 11.7195C23.939 5.24692 18.6918 0 12.2195 0Z" fill="white"/>
<path id="Vector_2" d="M4.88921 16.6943C4.86347 16.7525 4.77174 16.77 4.68838 16.7301C4.60336 16.6919 4.55556 16.6124 4.58313 16.554C4.60841 16.4941 4.70014 16.4773 4.78498 16.5176C4.87018 16.5557 4.91871 16.6359 4.88921 16.6943ZM5.4657 17.2087C5.40981 17.2605 5.30053 17.2364 5.22635 17.1546C5.14969 17.0728 5.13536 16.9636 5.19207 16.911C5.2497 16.8592 5.35567 16.8834 5.43251 16.9652C5.50917 17.0478 5.52406 17.1564 5.4656 17.2088M5.8612 17.8668C5.78933 17.9167 5.67186 17.8699 5.59934 17.7657C5.52755 17.6616 5.52755 17.5365 5.6009 17.4865C5.6737 17.4364 5.78933 17.4814 5.86286 17.5848C5.93455 17.6908 5.93455 17.8158 5.86111 17.8669M6.52997 18.629C6.46572 18.6998 6.32895 18.6809 6.22877 18.5842C6.12637 18.4897 6.09779 18.3556 6.16222 18.2847C6.2272 18.2138 6.3648 18.2337 6.46572 18.3296C6.56747 18.4239 6.59854 18.559 6.53006 18.629M7.39433 18.8864C7.36611 18.9781 7.23431 19.0199 7.10158 18.9809C6.96904 18.9407 6.88228 18.8332 6.90902 18.7404C6.9366 18.6481 7.06896 18.6046 7.20269 18.6463C7.33505 18.6863 7.422 18.793 7.39442 18.8864M8.37818 18.9955C8.38149 19.0922 8.2689 19.1723 8.12955 19.1741C7.98938 19.1771 7.87605 19.0989 7.87458 19.0039C7.87458 18.9063 7.9846 18.8268 8.12468 18.8245C8.26402 18.8218 8.37818 18.8995 8.37818 18.9955ZM9.34457 18.9585C9.3613 19.0528 9.26442 19.1496 9.12609 19.1754C8.99005 19.2002 8.86413 19.142 8.84676 19.0485C8.82985 18.9518 8.92856 18.8551 9.06432 18.83C9.20293 18.8059 9.32692 18.8626 9.34457 18.9585Z" fill="white"/>
</g>
</svg>
