<svg width="150" height="87" viewBox="0 0 150 87" fill="none" xmlns="http://www.w3.org/2000/svg">
<g id="Logo">
<g id="Group">
<path id="Vector" d="M28.9382 32.3409V57.1364H35.4095V44.8649H42.1897V38.6911H35.4095V35.5712H42.24V29.1106H32.1739C30.3865 29.1106 28.9382 30.5565 28.9382 32.3409Z" fill="#2A5C50"/>
<path id="Vector_2" d="M52.3377 29.1106H45.8664V57.1378H52.3377V29.1106Z" fill="#2A5C50"/>
<path id="Vector_3" d="M101.336 29.1106H94.865V57.1378H101.336V29.1106Z" fill="#2A5C50"/>
<path id="Vector_4" d="M49.1021 26.7019C51.016 26.7019 52.5676 25.1529 52.5676 23.2421C52.5676 21.3312 51.016 19.7822 49.1021 19.7822C47.1881 19.7822 45.6366 21.3312 45.6366 23.2421C45.6366 25.1529 47.1881 26.7019 49.1021 26.7019Z" fill="#2A5C50"/>
<path id="Vector_5" d="M98.1006 26.7019C100.015 26.7019 101.566 25.1529 101.566 23.2421C101.566 21.3312 100.015 19.7822 98.1006 19.7822C96.1866 19.7822 94.6351 21.3312 94.6351 23.2421C94.6351 25.1529 96.1866 26.7019 98.1006 26.7019Z" fill="#2A5C50"/>
<path id="Vector_6" d="M112.927 28.5681C108.527 28.5681 104.961 32.1284 104.961 36.5206V49.7259C104.961 54.1181 108.527 57.6784 112.927 57.6784C117.326 57.6784 120.892 54.1181 120.892 49.7259V36.5206C120.892 32.1284 117.326 28.5681 112.927 28.5681ZM114.421 50.0185C114.421 50.7989 113.753 51.43 112.927 51.43C112.101 51.43 111.433 50.7989 111.433 50.0185V36.1534C111.433 35.373 112.101 34.7419 112.927 34.7419C113.753 34.7419 114.421 35.373 114.421 36.1534V50.0185Z" fill="#2A5C50"/>
<path id="Vector_7" d="M83.0604 28.5681C78.6609 28.5681 75.0948 32.1284 75.0948 36.5206V50.0931C75.0948 50.8734 74.4267 51.5046 73.6006 51.5046C72.7744 51.5046 72.1063 50.8734 72.1063 50.0931V36.5206C72.1063 32.1284 68.5403 28.5681 64.1408 28.5681C59.7414 28.5681 56.1753 32.1284 56.1753 36.5206V57.1361H62.6466V36.1534C62.6466 35.373 63.3147 34.7419 64.1408 34.7419C64.967 34.7419 65.6351 35.373 65.6351 36.1534V49.7259C65.6351 54.1181 69.2012 57.6784 73.6006 57.6784C78 57.6784 81.5661 54.1181 81.5661 49.7259V36.1534C81.5661 35.373 82.2342 34.7419 83.0604 34.7419C83.8865 34.7419 84.5546 35.373 84.5546 36.1534V57.1361H91.0259V36.5206C91.0259 32.1284 87.4598 28.5681 83.0604 28.5681Z" fill="#2A5C50"/>
</g>
</g>
</svg>
